<svg xmlns="http://www.w3.org/2000/svg" width="121" height="33">
  <path fill="#FFFFFF" d="M16.715 7.932c-.068-.09-.306-.26-.714-.51s-.918-.51-1.53-.782-1.281-.51-2.006-.714a8.005 8.005 0 00-2.176-.306c-1.995 0-2.992.669-2.992 2.006 0 .408.107.748.323 1.02.215.272.532.516.952.731.419.215.946.414 1.58.595l1.406.393.805.219c1.156.317 2.198.663 3.128 1.037.929.374 1.717.839 2.363 1.394a5.647 5.647 0 011.496 2.023c.35.793.527 1.745.527 2.856 0 1.36-.255 2.51-.765 3.451-.51.94-1.185 1.7-2.023 2.278-.84.578-1.802.997-2.89 1.258-1.088.26-2.21.391-3.366.391a19.68 19.68 0 01-5.44-.799c-.884-.26-1.74-.572-2.567-.935A14.358 14.358 0 01.53 22.28l2.448-4.862c.09.113.385.329.884.646.498.317 1.116.635 1.853.952.736.317 1.558.6 2.465.85.906.25 1.824.374 2.754.374 1.972 0 2.958-.6 2.958-1.802 0-.453-.148-.827-.442-1.122-.295-.295-.703-.561-1.224-.799a12.455 12.455 0 00-1.504-.56l-1.702-.495-.976-.288c-1.111-.34-2.074-.708-2.89-1.105-.816-.397-1.49-.856-2.023-1.377a5.003 5.003 0 01-1.19-1.802c-.261-.68-.391-1.473-.391-2.38 0-1.27.238-2.391.714-3.366a7.266 7.266 0 011.938-2.465 8.435 8.435 0 012.839-1.513c1.076-.34 2.215-.51 3.417-.51.838 0 1.666.08 2.482.238.816.159 1.598.363 2.346.612.748.25 1.445.533 2.09.85.647.317 1.242.635 1.786.952l-2.448 4.624zM40.139 25h-5.44V14.97c0-1.156-.227-2.006-.68-2.55-.454-.544-1.077-.816-1.87-.816-.318 0-.663.074-1.037.221a4.173 4.173 0 00-1.088.646 5.827 5.827 0 00-.97 1.003 4.4 4.4 0 00-.68 1.292V25h-5.44V.18h5.44v9.962a6.786 6.786 0 012.602-2.465c1.076-.578 2.26-.867 3.553-.867 1.201 0 2.17.21 2.907.629.736.42 1.303.952 1.7 1.598.396.646.663 1.371.799 2.176.136.805.204 1.592.204 2.363V25zm12.34.34c-1.519 0-2.873-.25-4.063-.748-1.19-.499-2.193-1.173-3.01-2.023a8.54 8.54 0 01-1.852-2.958 9.97 9.97 0 01-.63-3.519c0-1.224.21-2.397.63-3.519a8.54 8.54 0 011.853-2.958c.816-.85 1.819-1.53 3.009-2.04s2.544-.765 4.063-.765c1.519 0 2.867.255 4.046.765 1.179.51 2.176 1.19 2.992 2.04a8.754 8.754 0 011.87 2.958 9.736 9.736 0 01.646 3.519 9.97 9.97 0 01-.63 3.519 8.54 8.54 0 01-1.852 2.958c-.816.85-1.82 1.524-3.01 2.023-1.19.499-2.543.748-4.062.748z"/>
</svg>
